<?xml version="1.0" standalone="no"?><!DOCTYPE svg PUBLIC "-//W3C//DTD SVG 1.1//EN" "http://www.w3.org/Graphics/SVG/1.1/DTD/svg11.dtd"><svg xmlns="http://www.w3.org/2000/svg" version="1.1" width="945.375" height="588.5" xmlns:xlink="http://www.w3.org/1999/xlink" xlink="http://www.w3.org/1999/xlink" style="position:relative;overflow:hidden;" viewBox="17.667 78.167 945.375 588.5"><defs/><g><g width="650.875" height="0" transform="scale(1,1) translate(299.667,291.667)"><g fill="#545454" stroke="#545454" stroke-opacity="1" transform="scale(1,1) translate(0,0)"><path fill="none" stroke-width="1" stroke-dasharray="none" d="M0,0 L0,0 M0,0 L0,0 M650.875,0 L650.875,0 M0,0 L0,0 M151.167,0 L263.333,0 M377.542,0 L489.708,0"/><g><g stroke-dasharray="none"><path d="M263.333,-5L273.333,0L263.333,5z" stroke="none" fill-opacity="1"/></g><g stroke-dasharray="none"><path d="M489.708,-5L499.708,0L489.708,5z" stroke="none" fill-opacity="1"/></g></g></g><g stroke-width="0" stroke-dasharray="none" fill="#FFFFFF" opacity="1" width="45.221" height="33.25" transform="scale(1,1) translate(189.639,-16.625)"><rect width="45.221" height="33.25"/></g><g width="43.22102737426758" height="40" transform="scale(1,1) translate(190.639,-15.625)"><text width="43.22102737426758" height="31.249998092651367" transform="scale(1,1) translate(0,0)" xml:space="preserve"><tspan xml:space="preserve" text-rendering="optimizeSpeed" font-size="13.88888888888889" font-weight="normal" font-style="normal" text-decoration="none" fill="#333333" opacity="1" x="0" text-anchor="start" y="12.5" textLength="43.22102737426758" style="font-family: Arial, Helvetica Neue, Helvetica, sans-serif;">Submit</tspan><tspan xml:space="preserve" text-rendering="optimizeSpeed" font-size="13.88888888888889" font-weight="normal" font-style="normal" text-decoration="none" fill="#333333" opacity="1" x="5.408" text-anchor="start" y="28.125" textLength="32.40559768676758" style="font-family: Arial, Helvetica Neue, Helvetica, sans-serif;">claim</tspan></text></g><g stroke-width="0" stroke-dasharray="none" fill="#FFFFFF" opacity="1" width="71.784" height="33.25" transform="scale(1,1) translate(402.733,-16.625)"><rect width="71.784" height="33.25"/></g><g width="69.78352355957031" height="40" transform="scale(1,1) translate(403.733,-15.625)"><text width="69.78352355957031" height="31.249998092651367" transform="scale(1,1) translate(0,0)" xml:space="preserve"><tspan xml:space="preserve" text-rendering="optimizeSpeed" font-size="13.88888888888889" font-weight="normal" font-style="normal" text-decoration="none" fill="#333333" opacity="1" x="0" text-anchor="start" y="12.5" textLength="69.78352355957031" style="font-family: Arial, Helvetica Neue, Helvetica, sans-serif;">Customer's</tspan><tspan xml:space="preserve" text-rendering="optimizeSpeed" font-size="13.88888888888889" font-weight="normal" font-style="normal" text-decoration="none" fill="#333333" opacity="1" x="23.311" text-anchor="start" y="28.125" textLength="23.16080665588379" style="font-family: Arial, Helvetica Neue, Helvetica, sans-serif;">Info</tspan></text></g></g><g width="150.167" height="75" transform="scale(1,1) translate(799.375,254.167)"><g stroke="#B4D7ED" stroke-opacity="1" stroke-width="1" stroke-dasharray="none" width="150.167" height="75" transform="scale(1,1) translate(0,0)" fill="#B4D7ED" fill-opacity="1"><rect width="150.167" height="75"/></g><g width="145.16666666666666" height="70" transform="scale(1,1) translate(2.5,2.5)"><text width="145.16666666666666" height="31.249998092651367" transform="scale(1,1) translate(0,19.375000953674316)" xml:space="preserve"><tspan xml:space="preserve" text-rendering="optimizeSpeed" font-size="13.88888888888889" font-weight="normal" font-style="normal" text-decoration="none" fill="#333333" opacity="1" x="45.565" text-anchor="start" y="12.5" textLength="50.170894622802734" style="font-family: Arial, Helvetica Neue, Helvetica, sans-serif;">Account</tspan><tspan xml:space="preserve" text-rendering="optimizeSpeed" font-size="13.88888888888889" font-weight="normal" font-style="normal" text-decoration="none" fill="#333333" opacity="1" x="42.859" text-anchor="start" y="28.125" textLength="59.448238372802734" style="font-family: Arial, Helvetica Neue, Helvetica, sans-serif;">Database</tspan></text></g></g><g width="150.167" height="75" transform="scale(1,1) translate(299.667,254.167)"><g stroke="#B4D7ED" stroke-opacity="1" stroke-width="1" stroke-dasharray="none" width="150.167" height="75" transform="scale(1,1) translate(0,0)" fill="#B4D7ED" fill-opacity="1"><rect width="150.167" height="75"/></g><g width="145.16666666666666" height="70" transform="scale(1,1) translate(2.5,2.5)"><text width="145.16666666666666" height="31.249998092651367" transform="scale(1,1) translate(0,19.375000953674316)" xml:space="preserve"><tspan xml:space="preserve" text-rendering="optimizeSpeed" font-size="13.88888888888889" font-weight="normal" font-style="normal" text-decoration="none" fill="#333333" opacity="1" x="49.423" text-anchor="start" y="12.5" textLength="46.32161331176758" style="font-family: Arial, Helvetica Neue, Helvetica, sans-serif;">Insured</tspan><tspan xml:space="preserve" text-rendering="optimizeSpeed" font-size="13.88888888888889" font-weight="normal" font-style="normal" text-decoration="none" fill="#333333" opacity="1" x="42.871" text-anchor="start" y="28.125" textLength="59.423824310302734" style="font-family: Arial, Helvetica Neue, Helvetica, sans-serif;">Customer</tspan></text></g></g><g width="103.208" height="103.208" transform="scale(1,1) translate(573,240.146)"><g width="103.208" height="103.208" transform="scale(1,1) translate(0,0)" stroke="#CFE9F7" stroke-width="1" stroke-dasharray="none" fill="#CFE9F7" fill-opacity="1" stroke-opacity="1"><ellipse rx="51.604" ry="51.604" cx="51.604" cy="51.604"/></g><g width="72.27220567691666" height="72.27220567691666" transform="scale(1,1) translate(15.468,15.468)"><text width="72.27220567691666" height="62.499996185302734" transform="scale(1,1) translate(0,4.886104745806961)" xml:space="preserve"><tspan xml:space="preserve" text-rendering="optimizeSpeed" font-size="13.88888888888889" font-weight="normal" font-style="normal" text-decoration="none" fill="#333333" opacity="1" x="0" text-anchor="start" y="12.5" textLength="71.78547668457031" style="font-family: Arial, Helvetica Neue, Helvetica, sans-serif;">Record and</tspan><tspan xml:space="preserve" text-rendering="optimizeSpeed" font-size="13.88888888888889" font-weight="normal" font-style="normal" text-decoration="none" fill="#333333" opacity="1" x="10.278" text-anchor="start" y="28.125" textLength="47.859703063964844" style="font-family: Arial, Helvetica Neue, Helvetica, sans-serif;">analyze</tspan><tspan xml:space="preserve" text-rendering="optimizeSpeed" font-size="13.88888888888889" font-weight="normal" font-style="normal" text-decoration="none" fill="#333333" opacity="1" x="18.009" text-anchor="start" y="43.75" textLength="32.39745330810547" style="font-family: Arial, Helvetica Neue, Helvetica, sans-serif;">claim</tspan><tspan xml:space="preserve" text-rendering="optimizeSpeed" font-size="13.88888888888889" font-weight="normal" font-style="normal" text-decoration="none" fill="#333333" opacity="1" x="1.786" text-anchor="start" y="59.375" textLength="68.701171875" style="font-family: Arial, Helvetica Neue, Helvetica, sans-serif;">information</tspan></text></g></g><g width="0" height="301.333" transform="scale(1,1) translate(624.604,343.354)"><g fill="#545454" stroke="#545454" stroke-opacity="1" transform="scale(1,1) translate(0,0)"><path fill="none" stroke-width="1" stroke-dasharray="none" d="M0,86.833 L0,86.833 M0,0 L0,76.833 M0,301.333 L0,301.333 M0,86.833 L0,86.833 M0,138.5 L0,215.333"/><g><g stroke-dasharray="none"><path d="M5,76.833L0,86.833L-5,76.833z" stroke="none" fill-opacity="1"/></g><g stroke-dasharray="none"><path d="M5,215.333L0,225.333L-5,215.333z" stroke="none" fill-opacity="1"/></g></g></g><g stroke-width="0" stroke-dasharray="none" fill="#FFFFFF" opacity="1" width="84.56" height="48.875" transform="scale(1,1) translate(-42.28,18.979)"><rect width="84.56" height="48.875"/></g><g width="82.56021881103516" height="86.83333333333333" transform="scale(1,1) translate(-41.28,19.979)"><text width="82.56021881103516" height="46.87499713897705" transform="scale(1,1) translate(0,0)" xml:space="preserve"><tspan xml:space="preserve" text-rendering="optimizeSpeed" font-size="13.88888888888889" font-weight="normal" font-style="normal" text-decoration="none" fill="#333333" opacity="1" x="20.439" text-anchor="start" y="12.5" textLength="41.68294143676758" style="font-family: Arial, Helvetica Neue, Helvetica, sans-serif;">Create</tspan><tspan xml:space="preserve" text-rendering="optimizeSpeed" font-size="13.88888888888889" font-weight="normal" font-style="normal" text-decoration="none" fill="#333333" opacity="1" x="0" text-anchor="start" y="28.125" textLength="78.69465637207031" style="font-family: Arial, Helvetica Neue, Helvetica, sans-serif;">New Claim #</tspan><tspan xml:space="preserve" text-rendering="optimizeSpeed" font-size="13.88888888888889" font-weight="normal" font-style="normal" text-decoration="none" fill="#333333" opacity="1" x="16.573" text-anchor="start" y="43.75" textLength="49.4140625" style="font-family: Arial, Helvetica Neue, Helvetica, sans-serif;">and info</tspan></text></g><g stroke-width="0" stroke-dasharray="none" fill="#FFFFFF" opacity="1" width="36.473" height="17.625" transform="scale(1,1) translate(-18.236,173.104)"><rect width="36.473" height="17.625"/></g><g width="34.47265625" height="86.83333333333334" transform="scale(1,1) translate(-17.236,174.104)"><text width="34.47265625" height="15.624999046325684" transform="scale(1,1) translate(0,0)" xml:space="preserve"><tspan xml:space="preserve" text-rendering="optimizeSpeed" font-size="13.88888888888889" font-weight="normal" font-style="normal" text-decoration="none" fill="#333333" opacity="1" x="0" text-anchor="start" y="12.5" textLength="34.47265625" style="font-family: Arial, Helvetica Neue, Helvetica, sans-serif;">Reply</tspan></text></g></g><g width="150.167" height="75" transform="scale(1,1) translate(549.521,568.688)"><g stroke="#B4D7ED" stroke-opacity="1" stroke-width="1" stroke-dasharray="none" width="150.167" height="75" transform="scale(1,1) translate(0,0)" fill="#B4D7ED" fill-opacity="1"><rect width="150.167" height="75"/></g><g width="145.16666666666666" height="70" transform="scale(1,1) translate(2.5,2.5)"><text width="145.16666666666666" height="31.249998092651367" transform="scale(1,1) translate(0,19.375000953674316)" xml:space="preserve"><tspan xml:space="preserve" text-rendering="optimizeSpeed" font-size="13.88888888888889" font-weight="normal" font-style="normal" text-decoration="none" fill="#333333" opacity="1" x="51.368" text-anchor="start" y="12.5" textLength="42.431640625" style="font-family: Arial, Helvetica Neue, Helvetica, sans-serif;">Claims</tspan><tspan xml:space="preserve" text-rendering="optimizeSpeed" font-size="13.88888888888889" font-weight="normal" font-style="normal" text-decoration="none" fill="#333333" opacity="1" x="42.867" text-anchor="start" y="28.125" textLength="59.43196487426758" style="font-family: Arial, Helvetica Neue, Helvetica, sans-serif;">Specialist</tspan></text></g></g><g width="150" height="50.667" transform="scale(1,1) translate(549.604,430.188)"><g width="150" height="50.667"><g transform="scale(0.9955797416712416,0.9712583999822059) translate(0,0)"><g><g width="149.833" height="50.667" transform="scale(1,1) translate(0,0)"><g width="149.833" height="50.667" transform="scale(1,1) translate(0,0)"><g width="149" height="50" transform="scale(1,1) translate(0.5,0.333)"><g stroke-opacity="1" stroke="#87BDE2" opacity="1" stroke-width="0" stroke-dasharray="none" width="149" height="50" transform="scale(1,1) translate(0,0)" fill-opacity="1" fill="#87BDE2"><rect width="149" height="50"/></g></g><g width="148.833" height="0" transform="scale(1,1) translate(0.5,0.5)"><g transform="scale(1,1) translate(0,0)" fill-opacity="1" fill="#87BDE2" stroke-opacity="1" stroke="#87BDE2"><path d="M0,0 L148.833,0" fill="none" stroke-width="1" stroke-dasharray="none"/><g><g stroke-dasharray="none"><path d="M-1.333,-1.333L1.333,-1.333L1.333,1.333L-1.333,1.333z" stroke-width="0" fill="none"/></g></g></g></g><g width="148.833" height="0" transform="scale(1,1) translate(0.5,50)"><g transform="scale(1,1) translate(0,0)" fill-opacity="1" fill="#87BDE2" stroke-opacity="1" stroke="#87BDE2"><path d="M0,0 L148.833,0" fill="none" stroke-width="1" stroke-dasharray="none"/><g><g stroke-dasharray="none"><path d="M-1.333,-1.333L1.333,-1.333L1.333,1.333L-1.333,1.333z" stroke-width="0" fill="none"/></g></g></g></g></g></g></g></g></g><g width="140.2388" height="40.427011111111106" transform="scale(1,1) translate(4.255,3.965)"><text width="140.2388" height="15.624999046325684" transform="scale(1,1) translate(0,12.401006032392711)" xml:space="preserve"><tspan xml:space="preserve" text-rendering="optimizeSpeed" font-size="13.88888888888889" font-weight="normal" font-style="normal" text-decoration="none" fill="#333333" opacity="1" x="30.764" text-anchor="start" y="12.5" textLength="78.7109375" style="font-family: Arial, Helvetica Neue, Helvetica, sans-serif;">Claim Status</tspan></text></g></g><g width="100.333" height="100.333" transform="scale(1,1) translate(30.167,553.833)"><g width="100.333" height="100.333" transform="scale(1,1) translate(0,0)" stroke="#CFE9F7" stroke-width="1" stroke-dasharray="none" fill="#CFE9F7" fill-opacity="1" stroke-opacity="1"><ellipse rx="50.1665" ry="50.1665" cx="50.1665" cy="50.1665"/></g><g width="70.23927367866666" height="70.23927367866666" transform="scale(1,1) translate(15.047,15.047)"><text width="70.23927367866666" height="46.87499713897705" transform="scale(1,1) translate(0,11.682138269844806)" xml:space="preserve"><tspan xml:space="preserve" text-rendering="optimizeSpeed" font-size="13.88888888888889" font-weight="normal" font-style="normal" text-decoration="none" fill="#333333" opacity="1" x="7.731" text-anchor="start" y="12.5" textLength="50.919593811035156" style="font-family: Arial, Helvetica Neue, Helvetica, sans-serif;">Forward</tspan><tspan xml:space="preserve" text-rendering="optimizeSpeed" font-size="13.88888888888889" font-weight="normal" font-style="normal" text-decoration="none" fill="#333333" opacity="1" x="3.097" text-anchor="start" y="28.125" textLength="60.18879699707031" style="font-family: Arial, Helvetica Neue, Helvetica, sans-serif;">Customer</tspan><tspan xml:space="preserve" text-rendering="optimizeSpeed" font-size="13.88888888888889" font-weight="normal" font-style="normal" text-decoration="none" fill="#333333" opacity="1" x="3.862" text-anchor="start" y="43.75" textLength="62.516273498535156" style="font-family: Arial, Helvetica Neue, Helvetica, sans-serif;">Complaint</tspan></text></g></g><g width="336.333" height="42.667" transform="scale(1,1) translate(346.833,90.167)"><g stroke="#CFE9F7" stroke-opacity="1" stroke-width="0" stroke-dasharray="none" width="336.333" height="42.667" transform="scale(1,1) translate(0,0)" fill="none"><rect width="336.333" height="42.667"/></g><g width="336.3333333333333" height="42.666666666666664" transform="scale(1,1) translate(0,0)"><text width="336.3333333333333" height="27.60416603088379" transform="scale(1,1) translate(0,7.531250317891438)" xml:space="preserve"><tspan xml:space="preserve" text-rendering="optimizeSpeed" font-size="25" font-weight="normal" font-style="normal" text-decoration="none" fill="#333333" opacity="1" x="18.801" text-anchor="start" y="22.396" textLength="298.73046875" style="font-family: Arial, Helvetica Neue, Helvetica, sans-serif;">Insurance Claims Software</tspan></text></g></g><g width="226.859" height="8.573" transform="scale(1,1) translate(374.667,245.594)"><g transform="scale(1,1) translate(0,0)" fill="#545454" stroke="#545454" stroke-opacity="1"><path d="M 0 -1.427 L 0 -41.427 L 226.859 -41.427 L 226.859 0" fill="none" stroke-width="1" stroke-dasharray="none"/><g><g stroke-dasharray="none"><path d="M5,-1.427L0,8.573L-5,-1.427z" stroke="none" fill-opacity="1"/></g></g></g><g stroke-width="0" stroke-dasharray="none" fill="#FFFFFF" opacity="1" width="115.468" height="33.25" transform="scale(1,1) translate(55.695,-58.052)"><rect width="115.468" height="33.25"/></g><g width="113.46842193603516" height="50" transform="scale(1,1) translate(56.695,-57.052)"><text width="113.46842193603516" height="31.249998092651367" transform="scale(1,1) translate(0,0)" xml:space="preserve"><tspan xml:space="preserve" text-rendering="optimizeSpeed" font-size="13.88888888888889" font-weight="normal" font-style="normal" text-decoration="none" fill="#333333" opacity="1" x="44.002" text-anchor="start" y="12.5" textLength="25.463865280151367" style="font-family: Arial, Helvetica Neue, Helvetica, sans-serif;">Mail</tspan><tspan xml:space="preserve" text-rendering="optimizeSpeed" font-size="13.88888888888889" font-weight="normal" font-style="normal" text-decoration="none" fill="#333333" opacity="1" x="0" text-anchor="start" y="28.125" textLength="113.46842193603516" style="font-family: Arial, Helvetica Neue, Helvetica, sans-serif;">Acknowledgement</tspan></text></g></g><g width="226.776" height="8.573" transform="scale(1,1) translate(647.682,245.594)"><g transform="scale(1,1) translate(0,0)" fill="#545454" stroke="#545454" stroke-opacity="1"><path d="M 0 0 L 0 -42.333 L 226.776 -42.333 L 226.776 -1.427" fill="none" stroke-width="1" stroke-dasharray="none"/><g><g stroke-dasharray="none"><path d="M231.776,-1.427L226.776,8.573L221.776,-1.427z" stroke="none" fill-opacity="1"/></g></g></g><g stroke-width="0" stroke-dasharray="none" fill="#FFFFFF" opacity="1" width="117.812" height="33.25" transform="scale(1,1) translate(54.482,-58.958)"><rect width="117.812" height="33.25"/></g><g width="115.81217193603516" height="50.90616983555813" transform="scale(1,1) translate(55.482,-57.958)"><text width="115.81217193603516" height="31.249998092651367" transform="scale(1,1) translate(0,0)" xml:space="preserve"><tspan xml:space="preserve" text-rendering="optimizeSpeed" font-size="13.88888888888889" font-weight="normal" font-style="normal" text-decoration="none" fill="#333333" opacity="1" x="39.514" text-anchor="start" y="12.5" textLength="36.783851623535156" style="font-family: Arial, Helvetica Neue, Helvetica, sans-serif;">Query</tspan><tspan xml:space="preserve" text-rendering="optimizeSpeed" font-size="13.88888888888889" font-weight="normal" font-style="normal" text-decoration="none" fill="#333333" opacity="1" x="0" text-anchor="start" y="28.125" textLength="115.81217193603516" style="font-family: Arial, Helvetica Neue, Helvetica, sans-serif;">Customer's History</tspan></text></g></g><g width="3.238" height="150.812" transform="scale(1,1) translate(696.929,455.521)"><g transform="scale(1,1) translate(0,0)" fill="#545454" stroke="#545454" stroke-opacity="1"><path d="M 10 0 L 50 0 L 50 150.812 L 3.238 150.812" fill="none" stroke-width="1" stroke-dasharray="none"/><g><g stroke-dasharray="none"><path d="M10,5L0,0L10,-5z" stroke="none" fill-opacity="1"/></g></g></g><g stroke-width="0" stroke-dasharray="none" fill="#FFFFFF" opacity="1" width="42.649" height="17.625" transform="scale(1,1) translate(28.675,66.594)"><rect width="42.649" height="17.625"/></g><g width="40.6494140625" height="150.81249999999994" transform="scale(1,1) translate(29.675,67.594)"><text width="40.6494140625" height="15.624999046325684" transform="scale(1,1) translate(0,0)" xml:space="preserve"><tspan xml:space="preserve" text-rendering="optimizeSpeed" font-size="13.88888888888889" font-weight="normal" font-style="normal" text-decoration="none" fill="#333333" opacity="1" x="0" text-anchor="start" y="12.5" textLength="40.6494140625" style="font-family: Arial, Helvetica Neue, Helvetica, sans-serif;">Inquiry</tspan></text></g></g><g width="277.768" height="1.436" transform="scale(1,1) translate(272.167,466.667)"><g transform="scale(1,1) translate(0,0)" fill="#545454" stroke="#545454" stroke-opacity="1"><path d="M 0 0 L 139.167 0 L 139.167 1.436 L 267.768 1.436" fill="none" stroke-width="1" stroke-dasharray="none"/><g><g stroke-dasharray="none"><path d="M267.768,-3.564L277.768,1.436L267.768,6.436z" stroke="none" fill-opacity="1"/></g></g></g><g stroke-width="0" stroke-dasharray="none" fill="#FFFFFF" opacity="1" width="46.775" height="33.25" transform="scale(1,1) translate(115.779,-15.907)"><rect width="46.775" height="33.25"/></g><g width="44.775390625" height="31.249998092651367" transform="scale(1,1) translate(116.779,-14.907)"><text width="44.775390625" height="31.249998092651367" transform="scale(1,1) translate(0,0)" xml:space="preserve"><tspan xml:space="preserve" text-rendering="optimizeSpeed" font-size="13.88888888888889" font-weight="normal" font-style="normal" text-decoration="none" fill="#333333" opacity="1" x="0" text-anchor="start" y="12.5" textLength="44.775390625" style="font-family: Arial, Helvetica Neue, Helvetica, sans-serif;">Update</tspan><tspan xml:space="preserve" text-rendering="optimizeSpeed" font-size="13.88888888888889" font-weight="normal" font-style="normal" text-decoration="none" fill="#333333" opacity="1" x="2.702" text-anchor="start" y="28.125" textLength="39.371742248535156" style="font-family: Arial, Helvetica Neue, Helvetica, sans-serif;">Status</tspan></text></g></g><g width="137.768" height="101.188" transform="scale(1,1) translate(412.167,329.167)"><g transform="scale(1,1) translate(0,0)" fill="#545454" stroke="#545454" stroke-opacity="1"><path d="M 0 0 L 0 101.188 L 127.768 101.188" fill="none" stroke-width="1" stroke-dasharray="none"/><g><g stroke-dasharray="none"><path d="M127.768,96.188L137.768,101.188L127.768,106.188z" stroke="none" fill-opacity="1"/></g></g></g><g stroke-width="0" stroke-dasharray="none" fill="#FFFFFF" opacity="1" width="42.649" height="17.625" transform="scale(1,1) translate(47.559,92.376)"><rect width="42.649" height="17.625"/></g><g width="40.6494140625" height="101.18803333333335" transform="scale(1,1) translate(48.559,93.376)"><text width="40.6494140625" height="15.624999046325684" transform="scale(1,1) translate(0,0)" xml:space="preserve"><tspan xml:space="preserve" text-rendering="optimizeSpeed" font-size="13.88888888888889" font-weight="normal" font-style="normal" text-decoration="none" fill="#333333" opacity="1" x="0" text-anchor="start" y="12.5" textLength="40.6494140625" style="font-family: Arial, Helvetica Neue, Helvetica, sans-serif;">Inquiry</tspan></text></g></g><g width="175.268" height="126.354" transform="scale(1,1) translate(374.667,329.167)"><g transform="scale(1,1) translate(0,0)" fill="#545454" stroke="#545454" stroke-opacity="1"><path d="M 0 10 L 0 126.354 L 175.268 126.354" fill="none" stroke-width="1" stroke-dasharray="none"/><g><g stroke-dasharray="none"><path d="M-5,10L0,0L5,10z" stroke="none" fill-opacity="1"/></g></g></g><g stroke-width="0" stroke-dasharray="none" fill="#FFFFFF" opacity="1" width="36.473" height="17.625" transform="scale(1,1) translate(69.397,117.542)"><rect width="36.473" height="17.625"/></g><g width="34.47265625" height="126.35416666666669" transform="scale(1,1) translate(70.397,118.542)"><text width="34.47265625" height="15.624999046325684" transform="scale(1,1) translate(0,0)" xml:space="preserve"><tspan xml:space="preserve" text-rendering="optimizeSpeed" font-size="13.88888888888889" font-weight="normal" font-style="normal" text-decoration="none" fill="#333333" opacity="1" x="0" text-anchor="start" y="12.5" textLength="34.47265625" style="font-family: Arial, Helvetica Neue, Helvetica, sans-serif;">Reply</tspan></text></g></g><g width="419.5" height="2.333" transform="scale(1,1) translate(130.5,604)"><g transform="scale(1,1) translate(0,0)" fill="#545454" stroke="#545454" stroke-opacity="1"><path d="M 0 0 L 209.667 0 L 209.667 2.333 L 409.5 2.333" fill="none" stroke-width="1" stroke-dasharray="none"/><g><g stroke-dasharray="none"><path d="M409.5,-2.667L419.5,2.333L409.5,7.333z" stroke="none" fill-opacity="1"/></g></g></g><g stroke-width="0" stroke-dasharray="none" fill="#FFFFFF" opacity="1" width="64.516" height="33.25" transform="scale(1,1) translate(177.409,-15.458)"><rect width="64.516" height="33.25"/></g><g width="62.516273498535156" height="31.249998092651367" transform="scale(1,1) translate(178.409,-14.458)"><text width="62.516273498535156" height="31.249998092651367" transform="scale(1,1) translate(0,0)" xml:space="preserve"><tspan xml:space="preserve" text-rendering="optimizeSpeed" font-size="13.88888888888889" font-weight="normal" font-style="normal" text-decoration="none" fill="#333333" opacity="1" x="1.546" text-anchor="start" y="12.5" textLength="59.423824310302734" style="font-family: Arial, Helvetica Neue, Helvetica, sans-serif;">Customer</tspan><tspan xml:space="preserve" text-rendering="optimizeSpeed" font-size="13.88888888888889" font-weight="normal" font-style="normal" text-decoration="none" fill="#333333" opacity="1" x="0" text-anchor="start" y="28.125" textLength="62.516273498535156" style="font-family: Arial, Helvetica Neue, Helvetica, sans-serif;">Complaint</tspan></text></g></g><g width="219.333" height="262.167" transform="scale(1,1) translate(80.333,291.667)"><g transform="scale(1,1) translate(0,0)" fill="#545454" stroke="#545454" stroke-opacity="1"><path d="M 0 252.167 L 0 0 L 219.333 0" fill="none" stroke-width="1" stroke-dasharray="none"/><g><g stroke-dasharray="none"><path d="M5,252.167L0,262.167L-5,252.167z" stroke="none" fill-opacity="1"/></g></g></g><g stroke-width="0" stroke-dasharray="none" fill="#FFFFFF" opacity="1" width="100.006" height="48.875" transform="scale(1,1) translate(-50.003,106.646)"><rect width="100.006" height="48.875"/></g><g width="98.00617980957031" height="262.16666666666663" transform="scale(1,1) translate(-49.003,107.646)"><text width="98.00617980957031" height="46.87499713897705" transform="scale(1,1) translate(0,0)" xml:space="preserve"><tspan xml:space="preserve" text-rendering="optimizeSpeed" font-size="13.88888888888889" font-weight="normal" font-style="normal" text-decoration="none" fill="#333333" opacity="1" x="25.46" text-anchor="start" y="12.5" textLength="47.086585998535156" style="font-family: Arial, Helvetica Neue, Helvetica, sans-serif;">Dispute</tspan><tspan xml:space="preserve" text-rendering="optimizeSpeed" font-size="13.88888888888889" font-weight="normal" font-style="normal" text-decoration="none" fill="#333333" opacity="1" x="0" text-anchor="start" y="28.125" textLength="98.00617980957031" style="font-family: Arial, Helvetica Neue, Helvetica, sans-serif;">Reimbursement</tspan><tspan xml:space="preserve" text-rendering="optimizeSpeed" font-size="13.88888888888889" font-weight="normal" font-style="normal" text-decoration="none" fill="#333333" opacity="1" x="25.073" text-anchor="start" y="43.75" textLength="47.85969924926758" style="font-family: Arial, Helvetica Neue, Helvetica, sans-serif;">Amount</tspan></text></g></g><g width="100.333" height="100.333" transform="scale(1,1) translate(171.833,416.5)"><g width="100.333" height="100.333" transform="scale(1,1) translate(0,0)" stroke="#CFE9F7" stroke-width="1" stroke-dasharray="none" fill="#CFE9F7" fill-opacity="1" stroke-opacity="1"><ellipse rx="50.1665" ry="50.1665" cx="50.1665" cy="50.1665"/></g><g width="70.23927367866666" height="70.23927367866666" transform="scale(1,1) translate(15.047,15.047)"><text width="70.23927367866666" height="46.87499713897705" transform="scale(1,1) translate(0,11.682138269844806)" xml:space="preserve"><tspan xml:space="preserve" text-rendering="optimizeSpeed" font-size="13.88888888888889" font-weight="normal" font-style="normal" text-decoration="none" fill="#333333" opacity="1" x="3.092" text-anchor="start" y="12.5" textLength="64.05435943603516" style="font-family: Arial, Helvetica Neue, Helvetica, sans-serif;">Determine</tspan><tspan xml:space="preserve" text-rendering="optimizeSpeed" font-size="13.88888888888889" font-weight="normal" font-style="normal" text-decoration="none" fill="#333333" opacity="1" x="1.55" text-anchor="start" y="28.125" textLength="67.138671875" style="font-family: Arial, Helvetica Neue, Helvetica, sans-serif;">Reimburse</tspan><tspan xml:space="preserve" text-rendering="optimizeSpeed" font-size="13.88888888888889" font-weight="normal" font-style="normal" text-decoration="none" fill="#333333" opacity="1" x="17.371" text-anchor="start" y="43.75" textLength="35.49803924560547" style="font-family: Arial, Helvetica Neue, Helvetica, sans-serif;">-ment</tspan></text></g></g><g width="77.667" height="106.167" transform="scale(1,1) translate(222,310.333)"><g transform="scale(1,1) translate(0,0)" fill="#545454" stroke="#545454" stroke-opacity="1"><path d="M 0 106.167 L 0 0 L 67.667 0" fill="none" stroke-width="1" stroke-dasharray="none"/><g><g stroke-dasharray="none"><path d="M67.667,-5L77.667,0L67.667,5z" stroke="none" fill-opacity="1"/></g></g></g><g stroke-width="0" stroke-dasharray="none" fill="#FFFFFF" opacity="1" width="100.006" height="17.625" transform="scale(1,1) translate(-50.003,44.271)"><rect width="100.006" height="17.625"/></g><g width="98.00617980957031" height="106.16666666666669" transform="scale(1,1) translate(-49.003,45.271)"><text width="98.00617980957031" height="15.624999046325684" transform="scale(1,1) translate(0,0)" xml:space="preserve"><tspan xml:space="preserve" text-rendering="optimizeSpeed" font-size="13.88888888888889" font-weight="normal" font-style="normal" text-decoration="none" fill="#333333" opacity="1" x="0" text-anchor="start" y="12.5" textLength="98.00617980957031" style="font-family: Arial, Helvetica Neue, Helvetica, sans-serif;">Reimbursement</tspan></text></g></g></g></svg>